<mxfile host="app.diagrams.net" modified="2023-02-13T08:17:14.256Z" agent="5.0 (Windows NT 10.0; Win64; x64) AppleWebKit/537.36 (KHTML, like Gecko) Chrome/110.0.0.0 Safari/537.36 Edg/110.0.1587.41" etag="i5o26vAj7r_mpHzM_IOm" version="20.8.18" type="github" pages="5">
  <diagram name="第 1 页" id="zwg2vvg_9aj8PHfeXNo3">
    <mxGraphModel dx="1434" dy="908" grid="1" gridSize="10" guides="1" tooltips="1" connect="1" arrows="1" fold="1" page="1" pageScale="1" pageWidth="827" pageHeight="1169" math="0" shadow="0">
      <root>
        <mxCell id="0" />
        <mxCell id="1" parent="0" />
        <mxCell id="I6TWMLQy3BOm3Pw9d9K--17" value="" style="group" parent="1" vertex="1" connectable="0">
          <mxGeometry x="90" y="140" width="580" height="260" as="geometry" />
        </mxCell>
        <mxCell id="I6TWMLQy3BOm3Pw9d9K--5" value="Gitlab" style="html=1;align=left;verticalAlign=top;container=0;" parent="I6TWMLQy3BOm3Pw9d9K--17" vertex="1">
          <mxGeometry width="580" height="260" as="geometry" />
        </mxCell>
        <mxCell id="I6TWMLQy3BOm3Pw9d9K--7" value="&lt;b&gt;Component1&lt;/b&gt;" style="html=1;dropTarget=0;align=left;verticalAlign=top;container=0;" parent="I6TWMLQy3BOm3Pw9d9K--17" vertex="1">
          <mxGeometry x="40" y="70" width="130" height="140" as="geometry" />
        </mxCell>
        <mxCell id="I6TWMLQy3BOm3Pw9d9K--9" value="&lt;b&gt;Component2&lt;/b&gt;" style="html=1;dropTarget=0;align=left;verticalAlign=top;container=0;" parent="I6TWMLQy3BOm3Pw9d9K--17" vertex="1">
          <mxGeometry x="210" y="70" width="130" height="140" as="geometry" />
        </mxCell>
        <mxCell id="I6TWMLQy3BOm3Pw9d9K--11" value="&lt;b&gt;ComponentN&lt;/b&gt;" style="html=1;dropTarget=0;align=left;verticalAlign=top;container=0;" parent="I6TWMLQy3BOm3Pw9d9K--17" vertex="1">
          <mxGeometry x="380" y="70" width="130" height="140" as="geometry" />
        </mxCell>
        <mxCell id="I6TWMLQy3BOm3Pw9d9K--14" value="Description" style="shape=module;align=left;spacingLeft=20;align=center;verticalAlign=top;container=0;" parent="I6TWMLQy3BOm3Pw9d9K--17" vertex="1">
          <mxGeometry x="50" y="140" width="100" height="50" as="geometry" />
        </mxCell>
        <mxCell id="I6TWMLQy3BOm3Pw9d9K--15" value="Description" style="shape=module;align=left;spacingLeft=20;align=center;verticalAlign=top;container=0;" parent="I6TWMLQy3BOm3Pw9d9K--17" vertex="1">
          <mxGeometry x="225" y="140" width="100" height="50" as="geometry" />
        </mxCell>
        <mxCell id="I6TWMLQy3BOm3Pw9d9K--16" value="Description" style="shape=module;align=left;spacingLeft=20;align=center;verticalAlign=top;container=0;" parent="I6TWMLQy3BOm3Pw9d9K--17" vertex="1">
          <mxGeometry x="395" y="140" width="100" height="50" as="geometry" />
        </mxCell>
        <mxCell id="I6TWMLQy3BOm3Pw9d9K--8" value="" style="shape=module;jettyWidth=8;jettyHeight=4;container=0;" parent="I6TWMLQy3BOm3Pw9d9K--17" vertex="1">
          <mxGeometry x="143" y="77" width="20" height="20" as="geometry">
            <mxPoint x="-27" y="7" as="offset" />
          </mxGeometry>
        </mxCell>
        <mxCell id="I6TWMLQy3BOm3Pw9d9K--10" value="" style="shape=module;jettyWidth=8;jettyHeight=4;container=0;" parent="I6TWMLQy3BOm3Pw9d9K--17" vertex="1">
          <mxGeometry x="313" y="77" width="20" height="20" as="geometry">
            <mxPoint x="-27" y="7" as="offset" />
          </mxGeometry>
        </mxCell>
        <mxCell id="I6TWMLQy3BOm3Pw9d9K--12" value="" style="shape=module;jettyWidth=8;jettyHeight=4;container=0;" parent="I6TWMLQy3BOm3Pw9d9K--17" vertex="1">
          <mxGeometry x="483" y="77" width="20" height="20" as="geometry">
            <mxPoint x="-27" y="7" as="offset" />
          </mxGeometry>
        </mxCell>
        <mxCell id="I6TWMLQy3BOm3Pw9d9K--18" value="Assembly Factory" style="html=1;align=left;verticalAlign=top;" parent="1" vertex="1">
          <mxGeometry x="10" y="430" width="770" height="380" as="geometry" />
        </mxCell>
        <mxCell id="I6TWMLQy3BOm3Pw9d9K--19" style="rounded=0;orthogonalLoop=1;jettySize=auto;html=1;entryX=0.5;entryY=1;entryDx=0;entryDy=0;exitX=0.5;exitY=0;exitDx=0;exitDy=0;" parent="1" source="I6TWMLQy3BOm3Pw9d9K--25" target="I6TWMLQy3BOm3Pw9d9K--14" edge="1">
          <mxGeometry relative="1" as="geometry">
            <mxPoint x="180" y="500" as="sourcePoint" />
          </mxGeometry>
        </mxCell>
        <mxCell id="I6TWMLQy3BOm3Pw9d9K--23" value="Pull" style="edgeLabel;html=1;align=center;verticalAlign=middle;resizable=0;points=[];" parent="I6TWMLQy3BOm3Pw9d9K--19" vertex="1" connectable="0">
          <mxGeometry x="0.1982" y="-2" relative="1" as="geometry">
            <mxPoint x="58" y="55" as="offset" />
          </mxGeometry>
        </mxCell>
        <mxCell id="I6TWMLQy3BOm3Pw9d9K--35" style="edgeStyle=none;rounded=0;orthogonalLoop=1;jettySize=auto;html=1;exitX=0.5;exitY=1;exitDx=0;exitDy=0;entryX=0.5;entryY=0;entryDx=0;entryDy=0;" parent="1" source="I6TWMLQy3BOm3Pw9d9K--25" target="I6TWMLQy3BOm3Pw9d9K--34" edge="1">
          <mxGeometry relative="1" as="geometry" />
        </mxCell>
        <mxCell id="I6TWMLQy3BOm3Pw9d9K--25" value="Description Parser" style="shape=module;align=left;spacingLeft=20;align=center;verticalAlign=top;container=0;" parent="1" vertex="1">
          <mxGeometry x="200" y="470" width="330" height="50" as="geometry" />
        </mxCell>
        <mxCell id="I6TWMLQy3BOm3Pw9d9K--49" style="edgeStyle=none;rounded=0;orthogonalLoop=1;jettySize=auto;html=1;" parent="1" source="I6TWMLQy3BOm3Pw9d9K--28" target="I6TWMLQy3BOm3Pw9d9K--40" edge="1">
          <mxGeometry relative="1" as="geometry" />
        </mxCell>
        <mxCell id="I6TWMLQy3BOm3Pw9d9K--28" value="Android &lt;br&gt;Assembly Plugin" style="html=1;dropTarget=0;" parent="1" vertex="1">
          <mxGeometry x="30" y="685" width="100" height="90" as="geometry" />
        </mxCell>
        <mxCell id="I6TWMLQy3BOm3Pw9d9K--29" value="" style="shape=module;jettyWidth=8;jettyHeight=4;" parent="I6TWMLQy3BOm3Pw9d9K--28" vertex="1">
          <mxGeometry x="1" width="20" height="20" relative="1" as="geometry">
            <mxPoint x="-27" y="7" as="offset" />
          </mxGeometry>
        </mxCell>
        <mxCell id="I6TWMLQy3BOm3Pw9d9K--66" style="edgeStyle=none;rounded=0;orthogonalLoop=1;jettySize=auto;html=1;" parent="1" source="I6TWMLQy3BOm3Pw9d9K--32" target="I6TWMLQy3BOm3Pw9d9K--54" edge="1">
          <mxGeometry relative="1" as="geometry" />
        </mxCell>
        <mxCell id="I6TWMLQy3BOm3Pw9d9K--32" value="iOS&lt;br&gt;Assembly Plugin" style="html=1;dropTarget=0;" parent="1" vertex="1">
          <mxGeometry x="200" y="685" width="100" height="90" as="geometry" />
        </mxCell>
        <mxCell id="I6TWMLQy3BOm3Pw9d9K--33" value="" style="shape=module;jettyWidth=8;jettyHeight=4;" parent="I6TWMLQy3BOm3Pw9d9K--32" vertex="1">
          <mxGeometry x="1" width="20" height="20" relative="1" as="geometry">
            <mxPoint x="-27" y="7" as="offset" />
          </mxGeometry>
        </mxCell>
        <mxCell id="I6TWMLQy3BOm3Pw9d9K--20" value="Pull" style="rounded=0;orthogonalLoop=1;jettySize=auto;html=1;entryX=0.5;entryY=1;entryDx=0;entryDy=0;exitX=0.5;exitY=0;exitDx=0;exitDy=0;" parent="1" source="I6TWMLQy3BOm3Pw9d9K--25" target="I6TWMLQy3BOm3Pw9d9K--15" edge="1">
          <mxGeometry x="-0.5714" relative="1" as="geometry">
            <mxPoint x="365" y="500" as="sourcePoint" />
            <mxPoint as="offset" />
          </mxGeometry>
        </mxCell>
        <mxCell id="I6TWMLQy3BOm3Pw9d9K--21" style="rounded=0;orthogonalLoop=1;jettySize=auto;html=1;entryX=0.5;entryY=1;entryDx=0;entryDy=0;exitX=0.5;exitY=0;exitDx=0;exitDy=0;" parent="1" source="I6TWMLQy3BOm3Pw9d9K--25" target="I6TWMLQy3BOm3Pw9d9K--16" edge="1">
          <mxGeometry relative="1" as="geometry">
            <mxPoint x="535" y="500" as="sourcePoint" />
          </mxGeometry>
        </mxCell>
        <mxCell id="I6TWMLQy3BOm3Pw9d9K--24" value="Pull" style="edgeLabel;html=1;align=center;verticalAlign=middle;resizable=0;points=[];" parent="I6TWMLQy3BOm3Pw9d9K--21" vertex="1" connectable="0">
          <mxGeometry x="0.2151" y="4" relative="1" as="geometry">
            <mxPoint x="-63" y="58" as="offset" />
          </mxGeometry>
        </mxCell>
        <mxCell id="I6TWMLQy3BOm3Pw9d9K--36" style="edgeStyle=none;rounded=0;orthogonalLoop=1;jettySize=auto;html=1;exitX=0;exitY=1;exitDx=10;exitDy=0;entryX=0.5;entryY=0;entryDx=0;entryDy=0;exitPerimeter=0;" parent="1" source="I6TWMLQy3BOm3Pw9d9K--34" target="I6TWMLQy3BOm3Pw9d9K--28" edge="1">
          <mxGeometry relative="1" as="geometry" />
        </mxCell>
        <mxCell id="I6TWMLQy3BOm3Pw9d9K--37" style="edgeStyle=none;rounded=0;orthogonalLoop=1;jettySize=auto;html=1;entryX=0.5;entryY=0;entryDx=0;entryDy=0;exitX=0.25;exitY=1;exitDx=0;exitDy=0;" parent="1" source="I6TWMLQy3BOm3Pw9d9K--34" target="I6TWMLQy3BOm3Pw9d9K--32" edge="1">
          <mxGeometry relative="1" as="geometry">
            <mxPoint x="360" y="610" as="sourcePoint" />
          </mxGeometry>
        </mxCell>
        <mxCell id="I6TWMLQy3BOm3Pw9d9K--46" style="edgeStyle=none;rounded=0;orthogonalLoop=1;jettySize=auto;html=1;exitX=0.5;exitY=1;exitDx=0;exitDy=0;entryX=0.5;entryY=0;entryDx=0;entryDy=0;" parent="1" source="I6TWMLQy3BOm3Pw9d9K--34" target="I6TWMLQy3BOm3Pw9d9K--38" edge="1">
          <mxGeometry relative="1" as="geometry" />
        </mxCell>
        <mxCell id="I6TWMLQy3BOm3Pw9d9K--47" style="edgeStyle=none;rounded=0;orthogonalLoop=1;jettySize=auto;html=1;entryX=0.5;entryY=0;entryDx=0;entryDy=0;exitX=0.75;exitY=1;exitDx=0;exitDy=0;" parent="1" source="I6TWMLQy3BOm3Pw9d9K--34" target="I6TWMLQy3BOm3Pw9d9K--42" edge="1">
          <mxGeometry relative="1" as="geometry" />
        </mxCell>
        <mxCell id="I6TWMLQy3BOm3Pw9d9K--34" value="Assembly Manager" style="shape=module;align=left;spacingLeft=20;align=center;verticalAlign=top;container=0;" parent="1" vertex="1">
          <mxGeometry x="200" y="550" width="330" height="50" as="geometry" />
        </mxCell>
        <mxCell id="I6TWMLQy3BOm3Pw9d9K--67" style="edgeStyle=none;rounded=0;orthogonalLoop=1;jettySize=auto;html=1;entryX=0.5;entryY=0;entryDx=0;entryDy=0;" parent="1" source="I6TWMLQy3BOm3Pw9d9K--38" target="I6TWMLQy3BOm3Pw9d9K--56" edge="1">
          <mxGeometry relative="1" as="geometry" />
        </mxCell>
        <mxCell id="I6TWMLQy3BOm3Pw9d9K--38" value="WEB&lt;br&gt;Assembly Plugin" style="html=1;dropTarget=0;" parent="1" vertex="1">
          <mxGeometry x="350" y="685" width="100" height="90" as="geometry" />
        </mxCell>
        <mxCell id="I6TWMLQy3BOm3Pw9d9K--39" value="" style="shape=module;jettyWidth=8;jettyHeight=4;" parent="I6TWMLQy3BOm3Pw9d9K--38" vertex="1">
          <mxGeometry x="1" width="20" height="20" relative="1" as="geometry">
            <mxPoint x="-27" y="7" as="offset" />
          </mxGeometry>
        </mxCell>
        <mxCell id="I6TWMLQy3BOm3Pw9d9K--40" value="Android &lt;br&gt;Solution" style="html=1;dropTarget=0;align=left;verticalAlign=top;" parent="1" vertex="1">
          <mxGeometry x="30" y="840" width="100" height="90" as="geometry" />
        </mxCell>
        <mxCell id="I6TWMLQy3BOm3Pw9d9K--41" value="" style="shape=module;jettyWidth=8;jettyHeight=4;" parent="I6TWMLQy3BOm3Pw9d9K--40" vertex="1">
          <mxGeometry x="1" width="20" height="20" relative="1" as="geometry">
            <mxPoint x="-27" y="7" as="offset" />
          </mxGeometry>
        </mxCell>
        <mxCell id="I6TWMLQy3BOm3Pw9d9K--68" style="edgeStyle=none;rounded=0;orthogonalLoop=1;jettySize=auto;html=1;entryX=0.5;entryY=0;entryDx=0;entryDy=0;" parent="1" source="I6TWMLQy3BOm3Pw9d9K--42" target="I6TWMLQy3BOm3Pw9d9K--58" edge="1">
          <mxGeometry relative="1" as="geometry" />
        </mxCell>
        <mxCell id="I6TWMLQy3BOm3Pw9d9K--42" value="Flutter&lt;br&gt;Assembly Plugin" style="html=1;dropTarget=0;" parent="1" vertex="1">
          <mxGeometry x="500" y="685" width="100" height="90" as="geometry" />
        </mxCell>
        <mxCell id="I6TWMLQy3BOm3Pw9d9K--43" value="" style="shape=module;jettyWidth=8;jettyHeight=4;" parent="I6TWMLQy3BOm3Pw9d9K--42" vertex="1">
          <mxGeometry x="1" width="20" height="20" relative="1" as="geometry">
            <mxPoint x="-27" y="7" as="offset" />
          </mxGeometry>
        </mxCell>
        <mxCell id="I6TWMLQy3BOm3Pw9d9K--69" style="edgeStyle=none;rounded=0;orthogonalLoop=1;jettySize=auto;html=1;entryX=0.5;entryY=0;entryDx=0;entryDy=0;" parent="1" source="I6TWMLQy3BOm3Pw9d9K--44" target="I6TWMLQy3BOm3Pw9d9K--60" edge="1">
          <mxGeometry relative="1" as="geometry" />
        </mxCell>
        <mxCell id="I6TWMLQy3BOm3Pw9d9K--44" value="Other&lt;br&gt;Assembly Plugin" style="html=1;dropTarget=0;" parent="1" vertex="1">
          <mxGeometry x="650" y="685" width="100" height="90" as="geometry" />
        </mxCell>
        <mxCell id="I6TWMLQy3BOm3Pw9d9K--45" value="" style="shape=module;jettyWidth=8;jettyHeight=4;" parent="I6TWMLQy3BOm3Pw9d9K--44" vertex="1">
          <mxGeometry x="1" width="20" height="20" relative="1" as="geometry">
            <mxPoint x="-27" y="7" as="offset" />
          </mxGeometry>
        </mxCell>
        <mxCell id="I6TWMLQy3BOm3Pw9d9K--54" value="iOS&lt;br&gt;Solution" style="html=1;dropTarget=0;align=left;verticalAlign=top;" parent="1" vertex="1">
          <mxGeometry x="200" y="840" width="100" height="90" as="geometry" />
        </mxCell>
        <mxCell id="I6TWMLQy3BOm3Pw9d9K--55" value="" style="shape=module;jettyWidth=8;jettyHeight=4;" parent="I6TWMLQy3BOm3Pw9d9K--54" vertex="1">
          <mxGeometry x="1" width="20" height="20" relative="1" as="geometry">
            <mxPoint x="-27" y="7" as="offset" />
          </mxGeometry>
        </mxCell>
        <mxCell id="I6TWMLQy3BOm3Pw9d9K--56" value="Web&lt;br&gt;Solution" style="html=1;dropTarget=0;align=left;verticalAlign=top;" parent="1" vertex="1">
          <mxGeometry x="340" y="840" width="120" height="90" as="geometry" />
        </mxCell>
        <mxCell id="I6TWMLQy3BOm3Pw9d9K--57" value="" style="shape=module;jettyWidth=8;jettyHeight=4;" parent="I6TWMLQy3BOm3Pw9d9K--56" vertex="1">
          <mxGeometry x="1" width="20" height="20" relative="1" as="geometry">
            <mxPoint x="-27" y="7" as="offset" />
          </mxGeometry>
        </mxCell>
        <mxCell id="I6TWMLQy3BOm3Pw9d9K--58" value="Flutter&lt;br&gt;Solution" style="html=1;dropTarget=0;align=left;verticalAlign=top;" parent="1" vertex="1">
          <mxGeometry x="485" y="840" width="130" height="90" as="geometry" />
        </mxCell>
        <mxCell id="I6TWMLQy3BOm3Pw9d9K--59" value="" style="shape=module;jettyWidth=8;jettyHeight=4;" parent="I6TWMLQy3BOm3Pw9d9K--58" vertex="1">
          <mxGeometry x="1" width="20" height="20" relative="1" as="geometry">
            <mxPoint x="-27" y="7" as="offset" />
          </mxGeometry>
        </mxCell>
        <mxCell id="I6TWMLQy3BOm3Pw9d9K--60" value="Other&lt;br&gt;Solution" style="html=1;dropTarget=0;align=left;verticalAlign=top;" parent="1" vertex="1">
          <mxGeometry x="630" y="840" width="140" height="90" as="geometry" />
        </mxCell>
        <mxCell id="I6TWMLQy3BOm3Pw9d9K--61" value="" style="shape=module;jettyWidth=8;jettyHeight=4;" parent="I6TWMLQy3BOm3Pw9d9K--60" vertex="1">
          <mxGeometry x="1" width="20" height="20" relative="1" as="geometry">
            <mxPoint x="-27" y="7" as="offset" />
          </mxGeometry>
        </mxCell>
        <mxCell id="I6TWMLQy3BOm3Pw9d9K--62" value="gradle" style="shape=module;align=left;spacingLeft=20;align=center;verticalAlign=top;" parent="1" vertex="1">
          <mxGeometry x="45" y="880" width="70" height="40" as="geometry" />
        </mxCell>
        <mxCell id="I6TWMLQy3BOm3Pw9d9K--63" value="podspec" style="shape=module;align=left;spacingLeft=20;align=center;verticalAlign=top;" parent="1" vertex="1">
          <mxGeometry x="210" y="880" width="80" height="40" as="geometry" />
        </mxCell>
        <mxCell id="I6TWMLQy3BOm3Pw9d9K--64" value="pakcage.json" style="shape=module;align=left;spacingLeft=20;align=center;verticalAlign=top;" parent="1" vertex="1">
          <mxGeometry x="350" y="880" width="100" height="40" as="geometry" />
        </mxCell>
        <mxCell id="I6TWMLQy3BOm3Pw9d9K--65" value="pubspec.yaml" style="shape=module;align=left;spacingLeft=20;align=center;verticalAlign=top;" parent="1" vertex="1">
          <mxGeometry x="495" y="880" width="110" height="40" as="geometry" />
        </mxCell>
        <mxCell id="I6TWMLQy3BOm3Pw9d9K--70" value="other build system" style="shape=module;align=left;spacingLeft=20;align=center;verticalAlign=top;" parent="1" vertex="1">
          <mxGeometry x="635" y="880" width="130" height="40" as="geometry" />
        </mxCell>
        <mxCell id="I6TWMLQy3BOm3Pw9d9K--48" style="edgeStyle=none;rounded=0;orthogonalLoop=1;jettySize=auto;html=1;entryX=0.5;entryY=0;entryDx=0;entryDy=0;exitX=1;exitY=1;exitDx=0;exitDy=0;" parent="1" source="I6TWMLQy3BOm3Pw9d9K--34" target="I6TWMLQy3BOm3Pw9d9K--44" edge="1">
          <mxGeometry relative="1" as="geometry" />
        </mxCell>
      </root>
    </mxGraphModel>
  </diagram>
  <diagram id="zv-O2JNxYxsMQmlohPRc" name="第 2 页">
    <mxGraphModel dx="1434" dy="908" grid="1" gridSize="10" guides="1" tooltips="1" connect="1" arrows="1" fold="1" page="1" pageScale="1" pageWidth="827" pageHeight="1169" math="0" shadow="0">
      <root>
        <mxCell id="0" />
        <mxCell id="1" parent="0" />
        <mxCell id="yf9CihzAh85KHfU8xRgC-20" style="edgeStyle=orthogonalEdgeStyle;rounded=0;orthogonalLoop=1;jettySize=auto;html=1;entryX=0;entryY=0.5;entryDx=0;entryDy=0;fontSize=14;" parent="1" source="DO625we-4FlpakCCzO4p-12" target="yf9CihzAh85KHfU8xRgC-1" edge="1">
          <mxGeometry relative="1" as="geometry" />
        </mxCell>
        <mxCell id="DO625we-4FlpakCCzO4p-12" value="App Factory" style="html=1;align=left;verticalAlign=top;fontSize=14;" parent="1" vertex="1">
          <mxGeometry x="104" y="540" width="616" height="340" as="geometry" />
        </mxCell>
        <mxCell id="DO625we-4FlpakCCzO4p-11" value="Nexus/Cocoapods" style="html=1;align=left;verticalAlign=top;fontSize=14;" parent="1" vertex="1">
          <mxGeometry x="104" y="325" width="616" height="175" as="geometry" />
        </mxCell>
        <mxCell id="yf9CihzAh85KHfU8xRgC-21" style="edgeStyle=orthogonalEdgeStyle;rounded=0;orthogonalLoop=1;jettySize=auto;html=1;entryX=0;entryY=0.5;entryDx=0;entryDy=0;fontSize=14;" parent="1" source="DO625we-4FlpakCCzO4p-10" target="yf9CihzAh85KHfU8xRgC-1" edge="1">
          <mxGeometry relative="1" as="geometry" />
        </mxCell>
        <mxCell id="DO625we-4FlpakCCzO4p-10" value="Gitlab" style="html=1;align=left;verticalAlign=top;fontSize=14;" parent="1" vertex="1">
          <mxGeometry x="104" y="120" width="616" height="175" as="geometry" />
        </mxCell>
        <mxCell id="DO625we-4FlpakCCzO4p-7" style="edgeStyle=none;rounded=0;orthogonalLoop=1;jettySize=auto;html=1;entryX=0.5;entryY=0;entryDx=0;entryDy=0;fontSize=14;" parent="1" source="upleQPJ2WQOxfalDjkzi-2" target="DO625we-4FlpakCCzO4p-1" edge="1">
          <mxGeometry relative="1" as="geometry" />
        </mxCell>
        <mxCell id="upleQPJ2WQOxfalDjkzi-2" value="Module1" style="html=1;dropTarget=0;fontSize=14;" parent="1" vertex="1">
          <mxGeometry x="170" y="170" width="110" height="90" as="geometry" />
        </mxCell>
        <mxCell id="upleQPJ2WQOxfalDjkzi-3" value="" style="shape=module;jettyWidth=8;jettyHeight=4;fontSize=14;" parent="upleQPJ2WQOxfalDjkzi-2" vertex="1">
          <mxGeometry x="1" width="20" height="20" relative="1" as="geometry">
            <mxPoint x="-27" y="7" as="offset" />
          </mxGeometry>
        </mxCell>
        <mxCell id="DO625we-4FlpakCCzO4p-8" style="edgeStyle=none;rounded=0;orthogonalLoop=1;jettySize=auto;html=1;entryX=0.5;entryY=0;entryDx=0;entryDy=0;fontSize=14;" parent="1" source="upleQPJ2WQOxfalDjkzi-4" target="DO625we-4FlpakCCzO4p-3" edge="1">
          <mxGeometry relative="1" as="geometry" />
        </mxCell>
        <mxCell id="upleQPJ2WQOxfalDjkzi-4" value="Module2" style="html=1;dropTarget=0;fontSize=14;" parent="1" vertex="1">
          <mxGeometry x="357" y="170" width="110" height="90" as="geometry" />
        </mxCell>
        <mxCell id="upleQPJ2WQOxfalDjkzi-5" value="" style="shape=module;jettyWidth=8;jettyHeight=4;fontSize=14;" parent="upleQPJ2WQOxfalDjkzi-4" vertex="1">
          <mxGeometry x="1" width="20" height="20" relative="1" as="geometry">
            <mxPoint x="-27" y="7" as="offset" />
          </mxGeometry>
        </mxCell>
        <mxCell id="DO625we-4FlpakCCzO4p-9" style="edgeStyle=none;rounded=0;orthogonalLoop=1;jettySize=auto;html=1;fontSize=14;" parent="1" source="upleQPJ2WQOxfalDjkzi-6" target="DO625we-4FlpakCCzO4p-5" edge="1">
          <mxGeometry relative="1" as="geometry" />
        </mxCell>
        <mxCell id="upleQPJ2WQOxfalDjkzi-6" value="ModuleN" style="html=1;dropTarget=0;fontSize=14;" parent="1" vertex="1">
          <mxGeometry x="549" y="170" width="100" height="90" as="geometry" />
        </mxCell>
        <mxCell id="upleQPJ2WQOxfalDjkzi-7" value="" style="shape=module;jettyWidth=8;jettyHeight=4;fontSize=14;" parent="upleQPJ2WQOxfalDjkzi-6" vertex="1">
          <mxGeometry x="1" width="20" height="20" relative="1" as="geometry">
            <mxPoint x="-27" y="7" as="offset" />
          </mxGeometry>
        </mxCell>
        <mxCell id="2QaKas8CS87gtc61uWDf-1" value="App Framework" style="html=1;dropTarget=0;fontSize=14;" parent="1" vertex="1">
          <mxGeometry x="324" y="620" width="180" height="90" as="geometry" />
        </mxCell>
        <mxCell id="2QaKas8CS87gtc61uWDf-2" value="" style="shape=module;jettyWidth=8;jettyHeight=4;fontSize=14;" parent="2QaKas8CS87gtc61uWDf-1" vertex="1">
          <mxGeometry x="1" width="20" height="20" relative="1" as="geometry">
            <mxPoint x="-27" y="7" as="offset" />
          </mxGeometry>
        </mxCell>
        <mxCell id="DO625we-4FlpakCCzO4p-1" value="Module1&lt;br style=&quot;font-size: 14px;&quot;&gt;Binary" style="html=1;dropTarget=0;fontSize=14;" parent="1" vertex="1">
          <mxGeometry x="170" y="365" width="110" height="90" as="geometry" />
        </mxCell>
        <mxCell id="DO625we-4FlpakCCzO4p-2" value="" style="shape=module;jettyWidth=8;jettyHeight=4;fontSize=14;" parent="DO625we-4FlpakCCzO4p-1" vertex="1">
          <mxGeometry x="1" width="20" height="20" relative="1" as="geometry">
            <mxPoint x="-27" y="7" as="offset" />
          </mxGeometry>
        </mxCell>
        <mxCell id="DO625we-4FlpakCCzO4p-3" value="Module2&lt;br style=&quot;font-size: 14px;&quot;&gt;Binary" style="html=1;dropTarget=0;fontSize=14;" parent="1" vertex="1">
          <mxGeometry x="357" y="365" width="110" height="90" as="geometry" />
        </mxCell>
        <mxCell id="DO625we-4FlpakCCzO4p-4" value="" style="shape=module;jettyWidth=8;jettyHeight=4;fontSize=14;" parent="DO625we-4FlpakCCzO4p-3" vertex="1">
          <mxGeometry x="1" width="20" height="20" relative="1" as="geometry">
            <mxPoint x="-27" y="7" as="offset" />
          </mxGeometry>
        </mxCell>
        <mxCell id="DO625we-4FlpakCCzO4p-5" value="ModuleN&lt;br style=&quot;font-size: 14px;&quot;&gt;Binary" style="html=1;dropTarget=0;fontSize=14;" parent="1" vertex="1">
          <mxGeometry x="544" y="365" width="110" height="90" as="geometry" />
        </mxCell>
        <mxCell id="DO625we-4FlpakCCzO4p-6" value="" style="shape=module;jettyWidth=8;jettyHeight=4;fontSize=14;" parent="DO625we-4FlpakCCzO4p-5" vertex="1">
          <mxGeometry x="1" width="20" height="20" relative="1" as="geometry">
            <mxPoint x="-27" y="7" as="offset" />
          </mxGeometry>
        </mxCell>
        <mxCell id="wW_vzUHUNwheHRck7dAu-3" style="edgeStyle=none;rounded=0;orthogonalLoop=1;jettySize=auto;html=1;entryX=0.5;entryY=1;entryDx=0;entryDy=0;fontSize=14;" parent="1" source="O3OTLkj9TkLmvS1eABt4-3" target="DO625we-4FlpakCCzO4p-1" edge="1">
          <mxGeometry relative="1" as="geometry" />
        </mxCell>
        <mxCell id="wW_vzUHUNwheHRck7dAu-4" style="edgeStyle=none;rounded=0;orthogonalLoop=1;jettySize=auto;html=1;entryX=0.5;entryY=1;entryDx=0;entryDy=0;fontSize=14;" parent="1" source="O3OTLkj9TkLmvS1eABt4-3" target="DO625we-4FlpakCCzO4p-3" edge="1">
          <mxGeometry relative="1" as="geometry" />
        </mxCell>
        <mxCell id="O3OTLkj9TkLmvS1eABt4-3" value="Component1.xml" style="html=1;dropTarget=0;fontSize=14;" parent="1" vertex="1">
          <mxGeometry x="170" y="587.5" width="110" height="90" as="geometry" />
        </mxCell>
        <mxCell id="O3OTLkj9TkLmvS1eABt4-4" value="" style="shape=module;jettyWidth=8;jettyHeight=4;fontSize=14;" parent="O3OTLkj9TkLmvS1eABt4-3" vertex="1">
          <mxGeometry x="1" width="20" height="20" relative="1" as="geometry">
            <mxPoint x="-27" y="7" as="offset" />
          </mxGeometry>
        </mxCell>
        <mxCell id="wW_vzUHUNwheHRck7dAu-5" style="edgeStyle=none;rounded=0;orthogonalLoop=1;jettySize=auto;html=1;entryX=0.5;entryY=1;entryDx=0;entryDy=0;fontSize=14;" parent="1" source="wW_vzUHUNwheHRck7dAu-1" target="DO625we-4FlpakCCzO4p-3" edge="1">
          <mxGeometry relative="1" as="geometry" />
        </mxCell>
        <mxCell id="wW_vzUHUNwheHRck7dAu-6" style="edgeStyle=none;rounded=0;orthogonalLoop=1;jettySize=auto;html=1;exitX=0.5;exitY=0;exitDx=0;exitDy=0;entryX=0.5;entryY=1;entryDx=0;entryDy=0;fontSize=14;" parent="1" source="wW_vzUHUNwheHRck7dAu-1" target="DO625we-4FlpakCCzO4p-5" edge="1">
          <mxGeometry relative="1" as="geometry" />
        </mxCell>
        <mxCell id="wW_vzUHUNwheHRck7dAu-1" value="ComponentN.xml" style="html=1;dropTarget=0;fontSize=14;" parent="1" vertex="1">
          <mxGeometry x="544" y="585" width="110" height="90" as="geometry" />
        </mxCell>
        <mxCell id="wW_vzUHUNwheHRck7dAu-2" value="" style="shape=module;jettyWidth=8;jettyHeight=4;fontSize=14;" parent="wW_vzUHUNwheHRck7dAu-1" vertex="1">
          <mxGeometry x="1" width="20" height="20" relative="1" as="geometry">
            <mxPoint x="-27" y="7" as="offset" />
          </mxGeometry>
        </mxCell>
        <mxCell id="P9OLIBjp0Zk6fSwO6xzy-1" style="edgeStyle=none;rounded=0;orthogonalLoop=1;jettySize=auto;html=1;exitX=0.25;exitY=0;exitDx=0;exitDy=0;entryX=0.5;entryY=1;entryDx=0;entryDy=0;fontSize=14;" parent="1" source="JfRdRevh2PpC6_w34qJR-1" target="O3OTLkj9TkLmvS1eABt4-3" edge="1">
          <mxGeometry relative="1" as="geometry" />
        </mxCell>
        <mxCell id="P9OLIBjp0Zk6fSwO6xzy-2" style="edgeStyle=none;rounded=0;orthogonalLoop=1;jettySize=auto;html=1;exitX=0.5;exitY=0;exitDx=0;exitDy=0;entryX=0.5;entryY=1;entryDx=0;entryDy=0;fontSize=14;" parent="1" source="JfRdRevh2PpC6_w34qJR-1" target="2QaKas8CS87gtc61uWDf-1" edge="1">
          <mxGeometry relative="1" as="geometry" />
        </mxCell>
        <mxCell id="P9OLIBjp0Zk6fSwO6xzy-3" style="edgeStyle=none;rounded=0;orthogonalLoop=1;jettySize=auto;html=1;exitX=0.75;exitY=0;exitDx=0;exitDy=0;entryX=0.5;entryY=1;entryDx=0;entryDy=0;fontSize=14;" parent="1" source="JfRdRevh2PpC6_w34qJR-1" target="wW_vzUHUNwheHRck7dAu-1" edge="1">
          <mxGeometry relative="1" as="geometry" />
        </mxCell>
        <mxCell id="JfRdRevh2PpC6_w34qJR-1" value="Assembly Manager" style="shape=module;align=left;spacingLeft=20;align=center;verticalAlign=top;container=0;fontSize=14;" parent="1" vertex="1">
          <mxGeometry x="156" y="740" width="516" height="120" as="geometry" />
        </mxCell>
        <mxCell id="P9OLIBjp0Zk6fSwO6xzy-4" value="Android Solution &lt;br style=&quot;font-size: 14px;&quot;&gt;Generator" style="html=1;dropTarget=0;fontSize=14;" parent="1" vertex="1">
          <mxGeometry x="194" y="780" width="154" height="70" as="geometry" />
        </mxCell>
        <mxCell id="P9OLIBjp0Zk6fSwO6xzy-5" value="" style="shape=module;jettyWidth=8;jettyHeight=4;fontSize=14;" parent="P9OLIBjp0Zk6fSwO6xzy-4" vertex="1">
          <mxGeometry x="1" width="20" height="20" relative="1" as="geometry">
            <mxPoint x="-27" y="7" as="offset" />
          </mxGeometry>
        </mxCell>
        <mxCell id="P9OLIBjp0Zk6fSwO6xzy-6" value="iOS Solution &lt;br style=&quot;font-size: 14px;&quot;&gt;Generator" style="html=1;dropTarget=0;fontSize=14;" parent="1" vertex="1">
          <mxGeometry x="470" y="780" width="154" height="70" as="geometry" />
        </mxCell>
        <mxCell id="P9OLIBjp0Zk6fSwO6xzy-7" value="" style="shape=module;jettyWidth=8;jettyHeight=4;fontSize=14;" parent="P9OLIBjp0Zk6fSwO6xzy-6" vertex="1">
          <mxGeometry x="1" width="20" height="20" relative="1" as="geometry">
            <mxPoint x="-27" y="7" as="offset" />
          </mxGeometry>
        </mxCell>
        <mxCell id="dHGLS5SWoiPLfk3-RTIB-4" value="Android &lt;br style=&quot;font-size: 14px;&quot;&gt;Solution" style="html=1;dropTarget=0;fontSize=14;" parent="1" vertex="1">
          <mxGeometry x="194" y="955" width="154" height="70" as="geometry" />
        </mxCell>
        <mxCell id="dHGLS5SWoiPLfk3-RTIB-5" value="" style="shape=module;jettyWidth=8;jettyHeight=4;fontSize=14;" parent="dHGLS5SWoiPLfk3-RTIB-4" vertex="1">
          <mxGeometry x="1" width="20" height="20" relative="1" as="geometry">
            <mxPoint x="-27" y="7" as="offset" />
          </mxGeometry>
        </mxCell>
        <mxCell id="dHGLS5SWoiPLfk3-RTIB-6" value="iOS&lt;br style=&quot;font-size: 14px;&quot;&gt;Solution" style="html=1;dropTarget=0;fontSize=14;" parent="1" vertex="1">
          <mxGeometry x="470" y="955" width="154" height="70" as="geometry" />
        </mxCell>
        <mxCell id="dHGLS5SWoiPLfk3-RTIB-7" value="" style="shape=module;jettyWidth=8;jettyHeight=4;fontSize=14;" parent="dHGLS5SWoiPLfk3-RTIB-6" vertex="1">
          <mxGeometry x="1" width="20" height="20" relative="1" as="geometry">
            <mxPoint x="-27" y="7" as="offset" />
          </mxGeometry>
        </mxCell>
        <mxCell id="dHGLS5SWoiPLfk3-RTIB-8" style="edgeStyle=none;rounded=0;orthogonalLoop=1;jettySize=auto;html=1;entryX=0.5;entryY=0;entryDx=0;entryDy=0;fontSize=14;" parent="1" source="P9OLIBjp0Zk6fSwO6xzy-4" target="dHGLS5SWoiPLfk3-RTIB-4" edge="1">
          <mxGeometry relative="1" as="geometry" />
        </mxCell>
        <mxCell id="dHGLS5SWoiPLfk3-RTIB-9" style="edgeStyle=none;rounded=0;orthogonalLoop=1;jettySize=auto;html=1;fontSize=14;" parent="1" source="P9OLIBjp0Zk6fSwO6xzy-6" target="dHGLS5SWoiPLfk3-RTIB-6" edge="1">
          <mxGeometry relative="1" as="geometry" />
        </mxCell>
        <mxCell id="yf9CihzAh85KHfU8xRgC-19" style="edgeStyle=orthogonalEdgeStyle;rounded=0;orthogonalLoop=1;jettySize=auto;html=1;entryX=0.5;entryY=0;entryDx=0;entryDy=0;fontSize=14;" parent="1" source="yf9CihzAh85KHfU8xRgC-1" target="dHGLS5SWoiPLfk3-RTIB-1" edge="1">
          <mxGeometry relative="1" as="geometry" />
        </mxCell>
        <mxCell id="yf9CihzAh85KHfU8xRgC-1" value="Portal" style="html=1;align=left;verticalAlign=top;fontSize=14;" parent="1" vertex="1">
          <mxGeometry x="760" y="120" width="150" height="692.5" as="geometry" />
        </mxCell>
        <mxCell id="yf9CihzAh85KHfU8xRgC-7" value="Module1&lt;br style=&quot;font-size: 14px;&quot;&gt;Description" style="html=1;dropTarget=0;fontSize=14;" parent="1" vertex="1">
          <mxGeometry x="770" y="152.5" width="120" height="60" as="geometry" />
        </mxCell>
        <mxCell id="yf9CihzAh85KHfU8xRgC-8" value="" style="shape=module;jettyWidth=8;jettyHeight=4;fontSize=14;" parent="yf9CihzAh85KHfU8xRgC-7" vertex="1">
          <mxGeometry x="1" width="20" height="20" relative="1" as="geometry">
            <mxPoint x="-27" y="7" as="offset" />
          </mxGeometry>
        </mxCell>
        <mxCell id="yf9CihzAh85KHfU8xRgC-10" value="Module2&lt;br style=&quot;font-size: 14px;&quot;&gt;Description" style="html=1;dropTarget=0;fontSize=14;" parent="1" vertex="1">
          <mxGeometry x="770" y="237.5" width="120" height="60" as="geometry" />
        </mxCell>
        <mxCell id="yf9CihzAh85KHfU8xRgC-11" value="" style="shape=module;jettyWidth=8;jettyHeight=4;fontSize=14;" parent="yf9CihzAh85KHfU8xRgC-10" vertex="1">
          <mxGeometry x="1" width="20" height="20" relative="1" as="geometry">
            <mxPoint x="-27" y="7" as="offset" />
          </mxGeometry>
        </mxCell>
        <mxCell id="yf9CihzAh85KHfU8xRgC-12" value="Module3&lt;br style=&quot;font-size: 14px;&quot;&gt;Description" style="html=1;dropTarget=0;fontSize=14;" parent="1" vertex="1">
          <mxGeometry x="770" y="322.5" width="120" height="60" as="geometry" />
        </mxCell>
        <mxCell id="yf9CihzAh85KHfU8xRgC-13" value="" style="shape=module;jettyWidth=8;jettyHeight=4;fontSize=14;" parent="yf9CihzAh85KHfU8xRgC-12" vertex="1">
          <mxGeometry x="1" width="20" height="20" relative="1" as="geometry">
            <mxPoint x="-27" y="7" as="offset" />
          </mxGeometry>
        </mxCell>
        <mxCell id="yf9CihzAh85KHfU8xRgC-14" value="Component1&lt;br style=&quot;font-size: 14px;&quot;&gt;Description" style="html=1;dropTarget=0;fontSize=14;" parent="1" vertex="1">
          <mxGeometry x="770" y="587.5" width="130" height="60" as="geometry" />
        </mxCell>
        <mxCell id="yf9CihzAh85KHfU8xRgC-15" value="" style="shape=module;jettyWidth=8;jettyHeight=4;fontSize=14;" parent="yf9CihzAh85KHfU8xRgC-14" vertex="1">
          <mxGeometry x="1" width="20" height="20" relative="1" as="geometry">
            <mxPoint x="-27" y="7" as="offset" />
          </mxGeometry>
        </mxCell>
        <mxCell id="yf9CihzAh85KHfU8xRgC-16" value="ComponentN&lt;br style=&quot;font-size: 14px;&quot;&gt;Description" style="html=1;dropTarget=0;fontSize=14;" parent="1" vertex="1">
          <mxGeometry x="770" y="682.5" width="130" height="60" as="geometry" />
        </mxCell>
        <mxCell id="yf9CihzAh85KHfU8xRgC-17" value="" style="shape=module;jettyWidth=8;jettyHeight=4;fontSize=14;" parent="yf9CihzAh85KHfU8xRgC-16" vertex="1">
          <mxGeometry x="1" width="20" height="20" relative="1" as="geometry">
            <mxPoint x="-27" y="7" as="offset" />
          </mxGeometry>
        </mxCell>
        <mxCell id="dHGLS5SWoiPLfk3-RTIB-1" value="Jenkins" style="html=1;align=left;verticalAlign=top;fontSize=14;" parent="1" vertex="1">
          <mxGeometry x="760" y="852.5" width="150" height="180" as="geometry" />
        </mxCell>
      </root>
    </mxGraphModel>
  </diagram>
  <diagram id="ox8aNvttb-8gVZ9L8BYf" name="第 3 页">
    <mxGraphModel dx="2027" dy="1148" grid="1" gridSize="10" guides="1" tooltips="1" connect="1" arrows="1" fold="1" page="1" pageScale="1" pageWidth="827" pageHeight="1169" math="0" shadow="0">
      <root>
        <mxCell id="0" />
        <mxCell id="1" parent="0" />
        <mxCell id="zcmXJdi1cQr9Ww2m_E8S-1" value="" style="group" parent="1" vertex="1" connectable="0">
          <mxGeometry x="100" y="60" width="600" height="260" as="geometry" />
        </mxCell>
        <mxCell id="zcmXJdi1cQr9Ww2m_E8S-2" value="Gitlab" style="html=1;align=left;verticalAlign=top;container=0;" parent="zcmXJdi1cQr9Ww2m_E8S-1" vertex="1">
          <mxGeometry width="600" height="260" as="geometry" />
        </mxCell>
        <mxCell id="zcmXJdi1cQr9Ww2m_E8S-3" value="&lt;b&gt;Component1&lt;/b&gt;" style="html=1;dropTarget=0;align=left;verticalAlign=top;container=0;" parent="zcmXJdi1cQr9Ww2m_E8S-1" vertex="1">
          <mxGeometry x="41.37931034482759" y="70" width="134.48275862068965" height="140" as="geometry" />
        </mxCell>
        <mxCell id="zcmXJdi1cQr9Ww2m_E8S-4" value="&lt;b&gt;Component2&lt;/b&gt;" style="html=1;dropTarget=0;align=left;verticalAlign=top;container=0;" parent="zcmXJdi1cQr9Ww2m_E8S-1" vertex="1">
          <mxGeometry x="217.24137931034485" y="70" width="134.48275862068965" height="140" as="geometry" />
        </mxCell>
        <mxCell id="zcmXJdi1cQr9Ww2m_E8S-5" value="&lt;b&gt;ComponentN&lt;/b&gt;" style="html=1;dropTarget=0;align=left;verticalAlign=top;container=0;" parent="zcmXJdi1cQr9Ww2m_E8S-1" vertex="1">
          <mxGeometry x="393.1034482758621" y="70" width="134.48275862068965" height="140" as="geometry" />
        </mxCell>
        <mxCell id="zcmXJdi1cQr9Ww2m_E8S-6" value="Description" style="shape=module;align=left;spacingLeft=20;align=center;verticalAlign=top;container=0;" parent="zcmXJdi1cQr9Ww2m_E8S-1" vertex="1">
          <mxGeometry x="51.724137931034484" y="140" width="103.44827586206897" height="50" as="geometry" />
        </mxCell>
        <mxCell id="zcmXJdi1cQr9Ww2m_E8S-7" value="Description" style="shape=module;align=left;spacingLeft=20;align=center;verticalAlign=top;container=0;" parent="zcmXJdi1cQr9Ww2m_E8S-1" vertex="1">
          <mxGeometry x="232.75862068965517" y="140" width="103.44827586206897" height="50" as="geometry" />
        </mxCell>
        <mxCell id="zcmXJdi1cQr9Ww2m_E8S-8" value="Description" style="shape=module;align=left;spacingLeft=20;align=center;verticalAlign=top;container=0;" parent="zcmXJdi1cQr9Ww2m_E8S-1" vertex="1">
          <mxGeometry x="408.62068965517244" y="140" width="103.44827586206897" height="50" as="geometry" />
        </mxCell>
        <mxCell id="zcmXJdi1cQr9Ww2m_E8S-9" value="" style="shape=module;jettyWidth=8;jettyHeight=4;container=0;" parent="zcmXJdi1cQr9Ww2m_E8S-1" vertex="1">
          <mxGeometry x="147.93103448275863" y="77" width="20.689655172413794" height="20" as="geometry">
            <mxPoint x="-27" y="7" as="offset" />
          </mxGeometry>
        </mxCell>
        <mxCell id="zcmXJdi1cQr9Ww2m_E8S-10" value="" style="shape=module;jettyWidth=8;jettyHeight=4;container=0;" parent="zcmXJdi1cQr9Ww2m_E8S-1" vertex="1">
          <mxGeometry x="323.7931034482759" y="77" width="20.689655172413794" height="20" as="geometry">
            <mxPoint x="-27" y="7" as="offset" />
          </mxGeometry>
        </mxCell>
        <mxCell id="zcmXJdi1cQr9Ww2m_E8S-11" value="" style="shape=module;jettyWidth=8;jettyHeight=4;container=0;" parent="zcmXJdi1cQr9Ww2m_E8S-1" vertex="1">
          <mxGeometry x="499.65517241379314" y="77" width="20.689655172413794" height="20" as="geometry">
            <mxPoint x="-27" y="7" as="offset" />
          </mxGeometry>
        </mxCell>
        <mxCell id="zcmXJdi1cQr9Ww2m_E8S-12" value="Assembly Factory" style="html=1;align=left;verticalAlign=top;" parent="1" vertex="1">
          <mxGeometry x="110" y="360" width="600" height="330" as="geometry" />
        </mxCell>
        <mxCell id="zcmXJdi1cQr9Ww2m_E8S-13" style="rounded=0;orthogonalLoop=1;jettySize=auto;html=1;entryX=0.5;entryY=1;entryDx=0;entryDy=0;exitX=0.5;exitY=0;exitDx=0;exitDy=0;" parent="1" source="zcmXJdi1cQr9Ww2m_E8S-16" target="zcmXJdi1cQr9Ww2m_E8S-6" edge="1">
          <mxGeometry relative="1" as="geometry">
            <mxPoint x="110" y="430" as="sourcePoint" />
          </mxGeometry>
        </mxCell>
        <mxCell id="zcmXJdi1cQr9Ww2m_E8S-14" value="Pull" style="edgeLabel;html=1;align=center;verticalAlign=middle;resizable=0;points=[];" parent="zcmXJdi1cQr9Ww2m_E8S-13" vertex="1" connectable="0">
          <mxGeometry x="0.1982" y="-2" relative="1" as="geometry">
            <mxPoint x="57" y="61" as="offset" />
          </mxGeometry>
        </mxCell>
        <mxCell id="zcmXJdi1cQr9Ww2m_E8S-15" style="edgeStyle=none;rounded=0;orthogonalLoop=1;jettySize=auto;html=1;exitX=0.25;exitY=1;exitDx=0;exitDy=0;entryX=0.5;entryY=0;entryDx=0;entryDy=0;" parent="1" source="zcmXJdi1cQr9Ww2m_E8S-16" target="zcmXJdi1cQr9Ww2m_E8S-30" edge="1">
          <mxGeometry relative="1" as="geometry" />
        </mxCell>
        <mxCell id="zcmXJdi1cQr9Ww2m_E8S-61" style="edgeStyle=none;rounded=0;orthogonalLoop=1;jettySize=auto;html=1;entryX=0.5;entryY=0;entryDx=0;entryDy=0;" parent="1" source="zcmXJdi1cQr9Ww2m_E8S-16" target="zcmXJdi1cQr9Ww2m_E8S-58" edge="1">
          <mxGeometry relative="1" as="geometry" />
        </mxCell>
        <mxCell id="zcmXJdi1cQr9Ww2m_E8S-16" value="Description Parser" style="shape=module;align=left;spacingLeft=20;align=center;verticalAlign=top;container=0;" parent="1" vertex="1">
          <mxGeometry x="292.5" y="400" width="180" height="50" as="geometry" />
        </mxCell>
        <mxCell id="zcmXJdi1cQr9Ww2m_E8S-23" value="Pull" style="rounded=0;orthogonalLoop=1;jettySize=auto;html=1;entryX=0.5;entryY=1;entryDx=0;entryDy=0;" parent="1" target="zcmXJdi1cQr9Ww2m_E8S-7" edge="1">
          <mxGeometry x="-0.6001" relative="1" as="geometry">
            <mxPoint x="383" y="400" as="sourcePoint" />
            <mxPoint as="offset" />
          </mxGeometry>
        </mxCell>
        <mxCell id="zcmXJdi1cQr9Ww2m_E8S-24" style="rounded=0;orthogonalLoop=1;jettySize=auto;html=1;entryX=0.5;entryY=1;entryDx=0;entryDy=0;exitX=0.5;exitY=0;exitDx=0;exitDy=0;" parent="1" source="zcmXJdi1cQr9Ww2m_E8S-16" target="zcmXJdi1cQr9Ww2m_E8S-8" edge="1">
          <mxGeometry relative="1" as="geometry">
            <mxPoint x="465" y="430" as="sourcePoint" />
          </mxGeometry>
        </mxCell>
        <mxCell id="zcmXJdi1cQr9Ww2m_E8S-25" value="Pull" style="edgeLabel;html=1;align=center;verticalAlign=middle;resizable=0;points=[];" parent="zcmXJdi1cQr9Ww2m_E8S-24" vertex="1" connectable="0">
          <mxGeometry x="0.2151" y="4" relative="1" as="geometry">
            <mxPoint x="-62" y="64" as="offset" />
          </mxGeometry>
        </mxCell>
        <mxCell id="zcmXJdi1cQr9Ww2m_E8S-30" value="Assembly Manager" style="shape=module;align=left;spacingLeft=20;align=center;verticalAlign=top;container=0;" parent="1" vertex="1">
          <mxGeometry x="167.5" y="485" width="180" height="50" as="geometry" />
        </mxCell>
        <mxCell id="zcmXJdi1cQr9Ww2m_E8S-39" style="edgeStyle=none;rounded=0;orthogonalLoop=1;jettySize=auto;html=1;entryX=0.5;entryY=0;entryDx=0;entryDy=0;" parent="1" source="zcmXJdi1cQr9Ww2m_E8S-40" target="zcmXJdi1cQr9Ww2m_E8S-48" edge="1">
          <mxGeometry relative="1" as="geometry" />
        </mxCell>
        <mxCell id="zcmXJdi1cQr9Ww2m_E8S-40" value="Assembly Plugin" style="html=1;dropTarget=0;" parent="1" vertex="1">
          <mxGeometry x="195" y="600" width="125" height="70" as="geometry" />
        </mxCell>
        <mxCell id="zcmXJdi1cQr9Ww2m_E8S-41" value="" style="shape=module;jettyWidth=8;jettyHeight=4;" parent="zcmXJdi1cQr9Ww2m_E8S-40" vertex="1">
          <mxGeometry x="1" width="20" height="20" relative="1" as="geometry">
            <mxPoint x="-27" y="7" as="offset" />
          </mxGeometry>
        </mxCell>
        <mxCell id="zcmXJdi1cQr9Ww2m_E8S-55" style="edgeStyle=none;rounded=0;orthogonalLoop=1;jettySize=auto;html=1;entryX=0.5;entryY=0;entryDx=0;entryDy=0;exitX=0.5;exitY=1;exitDx=0;exitDy=0;" parent="1" source="zcmXJdi1cQr9Ww2m_E8S-30" target="zcmXJdi1cQr9Ww2m_E8S-40" edge="1">
          <mxGeometry relative="1" as="geometry" />
        </mxCell>
        <mxCell id="zcmXJdi1cQr9Ww2m_E8S-57" value="" style="group" parent="1" vertex="1" connectable="0">
          <mxGeometry x="177.5" y="730" width="160" height="110" as="geometry" />
        </mxCell>
        <mxCell id="zcmXJdi1cQr9Ww2m_E8S-48" value="Other&lt;br&gt;Solution" style="html=1;dropTarget=0;align=left;verticalAlign=top;" parent="zcmXJdi1cQr9Ww2m_E8S-57" vertex="1">
          <mxGeometry width="160" height="110.00000000000001" as="geometry" />
        </mxCell>
        <mxCell id="zcmXJdi1cQr9Ww2m_E8S-49" value="" style="shape=module;jettyWidth=8;jettyHeight=4;" parent="zcmXJdi1cQr9Ww2m_E8S-48" vertex="1">
          <mxGeometry x="1" width="20" height="20" relative="1" as="geometry">
            <mxPoint x="-27" y="7" as="offset" />
          </mxGeometry>
        </mxCell>
        <mxCell id="zcmXJdi1cQr9Ww2m_E8S-54" value="build system" style="shape=module;align=left;spacingLeft=20;align=center;verticalAlign=top;" parent="zcmXJdi1cQr9Ww2m_E8S-57" vertex="1">
          <mxGeometry x="22.85" y="48.89" width="114.29" height="48.89" as="geometry" />
        </mxCell>
        <mxCell id="zcmXJdi1cQr9Ww2m_E8S-62" style="edgeStyle=none;rounded=0;orthogonalLoop=1;jettySize=auto;html=1;entryX=1;entryY=0.5;entryDx=0;entryDy=0;" parent="1" source="zcmXJdi1cQr9Ww2m_E8S-58" target="zcmXJdi1cQr9Ww2m_E8S-30" edge="1">
          <mxGeometry relative="1" as="geometry" />
        </mxCell>
        <mxCell id="zcmXJdi1cQr9Ww2m_E8S-67" style="edgeStyle=none;rounded=0;orthogonalLoop=1;jettySize=auto;html=1;entryX=0;entryY=0.5;entryDx=0;entryDy=0;" parent="1" source="zcmXJdi1cQr9Ww2m_E8S-58" target="zcmXJdi1cQr9Ww2m_E8S-59" edge="1">
          <mxGeometry relative="1" as="geometry" />
        </mxCell>
        <mxCell id="zcmXJdi1cQr9Ww2m_E8S-68" style="edgeStyle=none;rounded=0;orthogonalLoop=1;jettySize=auto;html=1;entryX=0;entryY=0.5;entryDx=0;entryDy=0;" parent="1" source="zcmXJdi1cQr9Ww2m_E8S-58" target="zcmXJdi1cQr9Ww2m_E8S-63" edge="1">
          <mxGeometry relative="1" as="geometry" />
        </mxCell>
        <mxCell id="zcmXJdi1cQr9Ww2m_E8S-76" style="edgeStyle=none;rounded=0;orthogonalLoop=1;jettySize=auto;html=1;entryX=0;entryY=0.5;entryDx=0;entryDy=0;" parent="1" source="zcmXJdi1cQr9Ww2m_E8S-58" target="zcmXJdi1cQr9Ww2m_E8S-74" edge="1">
          <mxGeometry relative="1" as="geometry" />
        </mxCell>
        <mxCell id="zcmXJdi1cQr9Ww2m_E8S-58" value="Deployment Manager" style="shape=module;align=center;spacingLeft=20;align=center;verticalAlign=middle;container=0;horizontal=1;" parent="1" vertex="1">
          <mxGeometry x="390" y="485" width="165" height="50" as="geometry" />
        </mxCell>
        <mxCell id="zcmXJdi1cQr9Ww2m_E8S-72" value="" style="edgeStyle=none;rounded=0;orthogonalLoop=1;jettySize=auto;html=1;" parent="1" source="zcmXJdi1cQr9Ww2m_E8S-59" target="zcmXJdi1cQr9Ww2m_E8S-69" edge="1">
          <mxGeometry relative="1" as="geometry" />
        </mxCell>
        <mxCell id="zcmXJdi1cQr9Ww2m_E8S-59" value="SDP &lt;br&gt;Deploy Plugin" style="html=1;dropTarget=0;" parent="1" vertex="1">
          <mxGeometry x="580" y="380" width="100" height="70" as="geometry" />
        </mxCell>
        <mxCell id="zcmXJdi1cQr9Ww2m_E8S-60" value="" style="shape=module;jettyWidth=8;jettyHeight=4;" parent="zcmXJdi1cQr9Ww2m_E8S-59" vertex="1">
          <mxGeometry x="1" width="20" height="20" relative="1" as="geometry">
            <mxPoint x="-27" y="7" as="offset" />
          </mxGeometry>
        </mxCell>
        <mxCell id="zcmXJdi1cQr9Ww2m_E8S-73" value="" style="edgeStyle=none;rounded=0;orthogonalLoop=1;jettySize=auto;html=1;" parent="1" source="zcmXJdi1cQr9Ww2m_E8S-63" target="zcmXJdi1cQr9Ww2m_E8S-70" edge="1">
          <mxGeometry relative="1" as="geometry" />
        </mxCell>
        <mxCell id="zcmXJdi1cQr9Ww2m_E8S-63" value="EKS &lt;br&gt;Deploy Plugin" style="html=1;dropTarget=0;" parent="1" vertex="1">
          <mxGeometry x="580" y="485" width="100" height="60" as="geometry" />
        </mxCell>
        <mxCell id="zcmXJdi1cQr9Ww2m_E8S-64" value="" style="shape=module;jettyWidth=8;jettyHeight=4;" parent="zcmXJdi1cQr9Ww2m_E8S-63" vertex="1">
          <mxGeometry x="1" width="20" height="20" relative="1" as="geometry">
            <mxPoint x="-27" y="7" as="offset" />
          </mxGeometry>
        </mxCell>
        <mxCell id="zcmXJdi1cQr9Ww2m_E8S-69" value="SDP Cloud" style="html=1;" parent="1" vertex="1">
          <mxGeometry x="760" y="392.5" width="83" height="50" as="geometry" />
        </mxCell>
        <mxCell id="zcmXJdi1cQr9Ww2m_E8S-70" value="AWS Cloud" style="html=1;" parent="1" vertex="1">
          <mxGeometry x="760" y="492.5" width="83" height="50" as="geometry" />
        </mxCell>
        <mxCell id="zcmXJdi1cQr9Ww2m_E8S-78" style="edgeStyle=none;rounded=0;orthogonalLoop=1;jettySize=auto;html=1;entryX=0;entryY=0.5;entryDx=0;entryDy=0;" parent="1" source="zcmXJdi1cQr9Ww2m_E8S-74" target="zcmXJdi1cQr9Ww2m_E8S-77" edge="1">
          <mxGeometry relative="1" as="geometry" />
        </mxCell>
        <mxCell id="zcmXJdi1cQr9Ww2m_E8S-74" value="Other&lt;br&gt;Deploy Plugin" style="html=1;dropTarget=0;" parent="1" vertex="1">
          <mxGeometry x="580" y="579.5" width="100" height="60" as="geometry" />
        </mxCell>
        <mxCell id="zcmXJdi1cQr9Ww2m_E8S-75" value="" style="shape=module;jettyWidth=8;jettyHeight=4;" parent="zcmXJdi1cQr9Ww2m_E8S-74" vertex="1">
          <mxGeometry x="1" width="20" height="20" relative="1" as="geometry">
            <mxPoint x="-27" y="7" as="offset" />
          </mxGeometry>
        </mxCell>
        <mxCell id="zcmXJdi1cQr9Ww2m_E8S-77" value="Other Cloud" style="html=1;" parent="1" vertex="1">
          <mxGeometry x="760" y="587.5" width="83" height="50" as="geometry" />
        </mxCell>
      </root>
    </mxGraphModel>
  </diagram>
  <diagram id="WKZ_IPauPFdLmfJImccN" name="第 4 页">
    <mxGraphModel dx="2027" dy="1148" grid="1" gridSize="10" guides="1" tooltips="1" connect="1" arrows="1" fold="1" page="1" pageScale="1" pageWidth="827" pageHeight="1169" math="0" shadow="0">
      <root>
        <mxCell id="0" />
        <mxCell id="1" parent="0" />
        <mxCell id="HnHAt2cieKyKtwD0Av-u-2" value="Gitlab" style="html=1;align=left;verticalAlign=top;container=0;" vertex="1" parent="1">
          <mxGeometry x="140" y="270" width="580" height="360" as="geometry" />
        </mxCell>
        <mxCell id="HnHAt2cieKyKtwD0Av-u-3" value="&lt;b&gt;Component1&lt;/b&gt;" style="html=1;dropTarget=0;align=left;verticalAlign=top;container=0;" vertex="1" parent="1">
          <mxGeometry x="182" y="440" width="130" height="140" as="geometry" />
        </mxCell>
        <mxCell id="HnHAt2cieKyKtwD0Av-u-4" value="&lt;b&gt;Component2&lt;/b&gt;" style="html=1;dropTarget=0;align=left;verticalAlign=top;container=0;" vertex="1" parent="1">
          <mxGeometry x="352" y="440" width="130" height="140" as="geometry" />
        </mxCell>
        <mxCell id="HnHAt2cieKyKtwD0Av-u-5" value="&lt;b&gt;ComponentN&lt;/b&gt;" style="html=1;dropTarget=0;align=left;verticalAlign=top;container=0;" vertex="1" parent="1">
          <mxGeometry x="522" y="440" width="130" height="140" as="geometry" />
        </mxCell>
        <mxCell id="HnHAt2cieKyKtwD0Av-u-6" value="Description" style="shape=module;align=left;spacingLeft=20;align=center;verticalAlign=top;container=0;" vertex="1" parent="1">
          <mxGeometry x="192" y="510" width="100" height="50" as="geometry" />
        </mxCell>
        <mxCell id="HnHAt2cieKyKtwD0Av-u-7" value="Description" style="shape=module;align=left;spacingLeft=20;align=center;verticalAlign=top;container=0;" vertex="1" parent="1">
          <mxGeometry x="367" y="510" width="100" height="50" as="geometry" />
        </mxCell>
        <mxCell id="HnHAt2cieKyKtwD0Av-u-8" value="Description" style="shape=module;align=left;spacingLeft=20;align=center;verticalAlign=top;container=0;" vertex="1" parent="1">
          <mxGeometry x="537" y="510" width="100" height="50" as="geometry" />
        </mxCell>
        <mxCell id="HnHAt2cieKyKtwD0Av-u-9" value="" style="shape=module;jettyWidth=8;jettyHeight=4;container=0;" vertex="1" parent="1">
          <mxGeometry x="285" y="447" width="20" height="20" as="geometry">
            <mxPoint x="-27" y="7" as="offset" />
          </mxGeometry>
        </mxCell>
        <mxCell id="HnHAt2cieKyKtwD0Av-u-10" value="" style="shape=module;jettyWidth=8;jettyHeight=4;container=0;" vertex="1" parent="1">
          <mxGeometry x="455" y="447" width="20" height="20" as="geometry">
            <mxPoint x="-27" y="7" as="offset" />
          </mxGeometry>
        </mxCell>
        <mxCell id="HnHAt2cieKyKtwD0Av-u-11" value="" style="shape=module;jettyWidth=8;jettyHeight=4;container=0;" vertex="1" parent="1">
          <mxGeometry x="625" y="447" width="20" height="20" as="geometry">
            <mxPoint x="-27" y="7" as="offset" />
          </mxGeometry>
        </mxCell>
        <mxCell id="HnHAt2cieKyKtwD0Av-u-12" value="Repository1" style="shape=module;align=left;spacingLeft=20;align=center;verticalAlign=top;" vertex="1" parent="1">
          <mxGeometry x="182" y="330" width="100" height="50" as="geometry" />
        </mxCell>
        <mxCell id="HnHAt2cieKyKtwD0Av-u-13" value="Repository2" style="shape=module;align=left;spacingLeft=20;align=center;verticalAlign=top;" vertex="1" parent="1">
          <mxGeometry x="304" y="330" width="100" height="50" as="geometry" />
        </mxCell>
        <mxCell id="HnHAt2cieKyKtwD0Av-u-14" value="Repository1" style="shape=module;align=left;spacingLeft=20;align=center;verticalAlign=top;" vertex="1" parent="1">
          <mxGeometry x="452" y="330" width="100" height="50" as="geometry" />
        </mxCell>
        <mxCell id="HnHAt2cieKyKtwD0Av-u-15" value="Repository1" style="shape=module;align=left;spacingLeft=20;align=center;verticalAlign=top;" vertex="1" parent="1">
          <mxGeometry x="582" y="330" width="100" height="50" as="geometry" />
        </mxCell>
        <mxCell id="HnHAt2cieKyKtwD0Av-u-16" value="Repository1" style="shape=module;align=left;spacingLeft=20;align=center;verticalAlign=top;" vertex="1" parent="1">
          <mxGeometry x="182" y="330" width="100" height="50" as="geometry" />
        </mxCell>
        <mxCell id="HnHAt2cieKyKtwD0Av-u-17" value="Repository1" style="shape=module;align=left;spacingLeft=20;align=center;verticalAlign=top;" vertex="1" parent="1">
          <mxGeometry x="170" y="330" width="100" height="50" as="geometry" />
        </mxCell>
        <mxCell id="HnHAt2cieKyKtwD0Av-u-18" value="Repository3" style="shape=module;align=left;spacingLeft=20;align=center;verticalAlign=top;" vertex="1" parent="1">
          <mxGeometry x="440" y="330" width="100" height="50" as="geometry" />
        </mxCell>
        <mxCell id="HnHAt2cieKyKtwD0Av-u-19" value="RepositoryN" style="shape=module;align=left;spacingLeft=20;align=center;verticalAlign=top;" vertex="1" parent="1">
          <mxGeometry x="570" y="330" width="100" height="50" as="geometry" />
        </mxCell>
      </root>
    </mxGraphModel>
  </diagram>
  <diagram id="Z2FlIMq5Q95FrbtasICm" name="第 5 页">
    <mxGraphModel dx="1816" dy="626" grid="1" gridSize="10" guides="1" tooltips="1" connect="1" arrows="1" fold="1" page="1" pageScale="1" pageWidth="827" pageHeight="1169" math="0" shadow="0">
      <root>
        <mxCell id="0" />
        <mxCell id="1" parent="0" />
        <mxCell id="kPAdhlGY2qAaLyFbSq-x-15" value="Pool" style="swimlane;childLayout=stackLayout;resizeParent=1;resizeParentMax=0;startSize=20;horizontal=0;horizontalStack=1;" vertex="1" parent="1">
          <mxGeometry x="-80" y="40" width="410" height="740" as="geometry" />
        </mxCell>
        <mxCell id="kPAdhlGY2qAaLyFbSq-x-16" value="开发者" style="swimlane;startSize=20;" vertex="1" parent="kPAdhlGY2qAaLyFbSq-x-15">
          <mxGeometry x="20" width="120" height="740" as="geometry" />
        </mxCell>
        <mxCell id="kPAdhlGY2qAaLyFbSq-x-29" value="编写代码" style="rounded=1;whiteSpace=wrap;html=1;absoluteArcSize=1;arcSize=14;strokeWidth=2;" vertex="1" parent="kPAdhlGY2qAaLyFbSq-x-16">
          <mxGeometry x="25" y="130" width="70" height="30" as="geometry" />
        </mxCell>
        <mxCell id="kPAdhlGY2qAaLyFbSq-x-31" value="提交代码" style="rounded=1;whiteSpace=wrap;html=1;absoluteArcSize=1;arcSize=14;strokeWidth=2;" vertex="1" parent="kPAdhlGY2qAaLyFbSq-x-16">
          <mxGeometry x="25" y="230" width="70" height="30" as="geometry" />
        </mxCell>
        <mxCell id="kPAdhlGY2qAaLyFbSq-x-32" style="edgeStyle=orthogonalEdgeStyle;rounded=0;orthogonalLoop=1;jettySize=auto;html=1;entryX=0.5;entryY=0;entryDx=0;entryDy=0;exitX=0.5;exitY=1;exitDx=0;exitDy=0;" edge="1" parent="kPAdhlGY2qAaLyFbSq-x-16" source="kPAdhlGY2qAaLyFbSq-x-29" target="kPAdhlGY2qAaLyFbSq-x-31">
          <mxGeometry relative="1" as="geometry" />
        </mxCell>
        <mxCell id="kPAdhlGY2qAaLyFbSq-x-51" style="edgeStyle=orthogonalEdgeStyle;rounded=0;orthogonalLoop=1;jettySize=auto;html=1;entryX=0.5;entryY=0;entryDx=0;entryDy=0;" edge="1" parent="kPAdhlGY2qAaLyFbSq-x-16" source="kPAdhlGY2qAaLyFbSq-x-50" target="kPAdhlGY2qAaLyFbSq-x-29">
          <mxGeometry relative="1" as="geometry" />
        </mxCell>
        <mxCell id="kPAdhlGY2qAaLyFbSq-x-50" value="" style="verticalLabelPosition=bottom;verticalAlign=top;html=1;shape=mxgraph.flowchart.on-page_reference;" vertex="1" parent="kPAdhlGY2qAaLyFbSq-x-16">
          <mxGeometry x="40" y="46.25" width="40" height="37.5" as="geometry" />
        </mxCell>
        <mxCell id="kPAdhlGY2qAaLyFbSq-x-17" value="Gitlab" style="swimlane;startSize=20;" vertex="1" parent="kPAdhlGY2qAaLyFbSq-x-15">
          <mxGeometry x="140" width="120" height="740" as="geometry" />
        </mxCell>
        <mxCell id="kPAdhlGY2qAaLyFbSq-x-27" value="创建代码库" style="rounded=1;whiteSpace=wrap;html=1;absoluteArcSize=1;arcSize=14;strokeWidth=2;" vertex="1" parent="kPAdhlGY2qAaLyFbSq-x-17">
          <mxGeometry x="25" y="130" width="70" height="30" as="geometry" />
        </mxCell>
        <mxCell id="kPAdhlGY2qAaLyFbSq-x-46" value="存储代码" style="rounded=1;whiteSpace=wrap;html=1;absoluteArcSize=1;arcSize=14;strokeWidth=2;" vertex="1" parent="kPAdhlGY2qAaLyFbSq-x-17">
          <mxGeometry x="25" y="230" width="70" height="30" as="geometry" />
        </mxCell>
        <mxCell id="kPAdhlGY2qAaLyFbSq-x-18" value="Nexus/Cocoapods" style="swimlane;startSize=20;" vertex="1" parent="kPAdhlGY2qAaLyFbSq-x-15">
          <mxGeometry x="260" width="150" height="740" as="geometry" />
        </mxCell>
        <mxCell id="kPAdhlGY2qAaLyFbSq-x-42" value="存储aar/pod" style="rounded=1;whiteSpace=wrap;html=1;absoluteArcSize=1;arcSize=14;strokeWidth=2;" vertex="1" parent="kPAdhlGY2qAaLyFbSq-x-18">
          <mxGeometry x="32.5" y="360" width="85" height="30" as="geometry" />
        </mxCell>
        <mxCell id="kPAdhlGY2qAaLyFbSq-x-47" style="edgeStyle=orthogonalEdgeStyle;rounded=0;orthogonalLoop=1;jettySize=auto;html=1;entryX=0;entryY=0.5;entryDx=0;entryDy=0;" edge="1" parent="kPAdhlGY2qAaLyFbSq-x-15" source="kPAdhlGY2qAaLyFbSq-x-31" target="kPAdhlGY2qAaLyFbSq-x-46">
          <mxGeometry relative="1" as="geometry" />
        </mxCell>
        <mxCell id="kPAdhlGY2qAaLyFbSq-x-20" value="门户" style="swimlane;startSize=20;" vertex="1" parent="1">
          <mxGeometry x="330" y="40" width="150" height="740" as="geometry" />
        </mxCell>
        <mxCell id="kPAdhlGY2qAaLyFbSq-x-26" value="创建颗粒" style="rounded=1;whiteSpace=wrap;html=1;absoluteArcSize=1;arcSize=14;strokeWidth=2;" vertex="1" parent="kPAdhlGY2qAaLyFbSq-x-20">
          <mxGeometry x="45" y="50" width="60" height="30" as="geometry" />
        </mxCell>
        <mxCell id="kPAdhlGY2qAaLyFbSq-x-33" value="触发构建" style="rounded=1;whiteSpace=wrap;html=1;absoluteArcSize=1;arcSize=14;strokeWidth=2;" vertex="1" parent="kPAdhlGY2qAaLyFbSq-x-20">
          <mxGeometry x="45" y="280" width="70" height="30" as="geometry" />
        </mxCell>
        <mxCell id="kPAdhlGY2qAaLyFbSq-x-21" value="Jenkins" style="swimlane;startSize=20;" vertex="1" parent="1">
          <mxGeometry x="480" y="40" width="120" height="740" as="geometry" />
        </mxCell>
        <mxCell id="kPAdhlGY2qAaLyFbSq-x-40" value="拉取代码" style="rounded=1;whiteSpace=wrap;html=1;absoluteArcSize=1;arcSize=14;strokeWidth=2;" vertex="1" parent="kPAdhlGY2qAaLyFbSq-x-21">
          <mxGeometry x="17.5" y="280" width="85" height="30" as="geometry" />
        </mxCell>
        <mxCell id="kPAdhlGY2qAaLyFbSq-x-45" value="构建" style="rounded=1;whiteSpace=wrap;html=1;absoluteArcSize=1;arcSize=14;strokeWidth=2;" vertex="1" parent="kPAdhlGY2qAaLyFbSq-x-21">
          <mxGeometry x="17.5" y="360" width="85" height="30" as="geometry" />
        </mxCell>
        <mxCell id="kPAdhlGY2qAaLyFbSq-x-43" style="edgeStyle=orthogonalEdgeStyle;rounded=0;orthogonalLoop=1;jettySize=auto;html=1;entryX=0.5;entryY=0;entryDx=0;entryDy=0;exitX=0.5;exitY=1;exitDx=0;exitDy=0;" edge="1" parent="kPAdhlGY2qAaLyFbSq-x-21" source="kPAdhlGY2qAaLyFbSq-x-40" target="kPAdhlGY2qAaLyFbSq-x-45">
          <mxGeometry relative="1" as="geometry" />
        </mxCell>
        <mxCell id="kPAdhlGY2qAaLyFbSq-x-28" style="edgeStyle=orthogonalEdgeStyle;rounded=0;orthogonalLoop=1;jettySize=auto;html=1;entryX=1;entryY=0.5;entryDx=0;entryDy=0;exitX=0.5;exitY=1;exitDx=0;exitDy=0;" edge="1" parent="1" source="kPAdhlGY2qAaLyFbSq-x-26" target="kPAdhlGY2qAaLyFbSq-x-27">
          <mxGeometry relative="1" as="geometry" />
        </mxCell>
        <mxCell id="kPAdhlGY2qAaLyFbSq-x-37" value="拼装工厂" style="swimlane;startSize=20;" vertex="1" parent="1">
          <mxGeometry x="600" y="40" width="120" height="740" as="geometry" />
        </mxCell>
        <mxCell id="kPAdhlGY2qAaLyFbSq-x-41" style="edgeStyle=orthogonalEdgeStyle;rounded=0;orthogonalLoop=1;jettySize=auto;html=1;exitX=1;exitY=0.5;exitDx=0;exitDy=0;entryX=0;entryY=0.5;entryDx=0;entryDy=0;" edge="1" parent="1" source="kPAdhlGY2qAaLyFbSq-x-33" target="kPAdhlGY2qAaLyFbSq-x-40">
          <mxGeometry relative="1" as="geometry" />
        </mxCell>
        <mxCell id="kPAdhlGY2qAaLyFbSq-x-48" style="edgeStyle=orthogonalEdgeStyle;rounded=0;orthogonalLoop=1;jettySize=auto;html=1;entryX=1;entryY=0.5;entryDx=0;entryDy=0;" edge="1" parent="1" source="kPAdhlGY2qAaLyFbSq-x-45" target="kPAdhlGY2qAaLyFbSq-x-42">
          <mxGeometry relative="1" as="geometry" />
        </mxCell>
        <mxCell id="kPAdhlGY2qAaLyFbSq-x-49" style="edgeStyle=orthogonalEdgeStyle;rounded=0;orthogonalLoop=1;jettySize=auto;html=1;entryX=0;entryY=0.5;entryDx=0;entryDy=0;exitX=0.5;exitY=1;exitDx=0;exitDy=0;" edge="1" parent="1" source="kPAdhlGY2qAaLyFbSq-x-31" target="kPAdhlGY2qAaLyFbSq-x-33">
          <mxGeometry relative="1" as="geometry" />
        </mxCell>
        <mxCell id="kPAdhlGY2qAaLyFbSq-x-52" style="edgeStyle=orthogonalEdgeStyle;rounded=0;orthogonalLoop=1;jettySize=auto;html=1;entryX=0;entryY=0.5;entryDx=0;entryDy=0;" edge="1" parent="1" source="kPAdhlGY2qAaLyFbSq-x-50" target="kPAdhlGY2qAaLyFbSq-x-26">
          <mxGeometry relative="1" as="geometry" />
        </mxCell>
      </root>
    </mxGraphModel>
  </diagram>
</mxfile>
